<?xml version="1.0" encoding="UTF-8" standalone="no"?>
<svg
   xmlns:dc="http://purl.org/dc/elements/1.1/"
   xmlns:cc="http://creativecommons.org/ns#"
   xmlns:rdf="http://www.w3.org/1999/02/22-rdf-syntax-ns#"
   xmlns:svg="http://www.w3.org/2000/svg"
   xmlns="http://www.w3.org/2000/svg"
   id="svg8"
   version="1.1"
   viewBox="0 0 89.429169 89.429169"
   height="89.429169mm"
   width="89.429169mm">
  <defs
     id="defs2" />
  <metadata
     id="metadata5">
    <rdf:RDF>
      <cc:Work
         rdf:about="">
        <dc:format>image/svg+xml</dc:format>
        <dc:type
           rdf:resource="http://purl.org/dc/dcmitype/StillImage" />
        <dc:title></dc:title>
      </cc:Work>
    </rdf:RDF>
  </metadata>
  <g
     id="layer1"
     transform="translate(-62.177082,-103.98125)">
    <rect
       style="fill:#ff7f2a;stroke-width:6.32354"
       id="rect830"
       width="89.429169"
       height="89.429169"
       x="62.177082"
       y="103.98125"
       ry="16.668751" />
    <g
       id="g843"
       style="font-style:normal;font-variant:normal;font-weight:900;font-stretch:normal;font-size:36.1357px;line-height:1.25;font-family:'Arial Black';-inkscape-font-specification:'Arial Black, Heavy';font-variant-ligatures:normal;font-variant-caps:normal;font-variant-numeric:normal;font-variant-east-asian:normal;stroke-width:0.903396"
       transform="matrix(1.7455415,0,0,1.3100324,-77.245917,-35.008128)">
      <path
         style="color:#000000;font-style:normal;font-variant:normal;font-weight:900;font-stretch:normal;font-size:36.1357px;line-height:1.25;font-family:'Arial Black';-inkscape-font-specification:'Arial Black, Heavy';font-variant-ligatures:normal;font-variant-position:normal;font-variant-caps:normal;font-variant-numeric:normal;font-variant-alternates:normal;font-variant-east-asian:normal;font-feature-settings:normal;font-variation-settings:normal;text-indent:0;text-align:start;text-decoration:none;text-decoration-line:none;text-decoration-style:solid;text-decoration-color:#000000;letter-spacing:normal;word-spacing:normal;text-transform:none;writing-mode:lr-tb;direction:ltr;text-orientation:mixed;dominant-baseline:auto;baseline-shift:baseline;text-anchor:start;white-space:normal;shape-padding:0;shape-margin:0;inline-size:0;clip-rule:nonzero;display:inline;overflow:visible;visibility:visible;isolation:auto;mix-blend-mode:normal;color-interpolation:sRGB;color-interpolation-filters:linearRGB;solid-color:#000000;solid-opacity:1;vector-effect:none;fill:#000000;fill-opacity:1;fill-rule:nonzero;stroke:none;stroke-width:0.903396;stroke-linecap:butt;stroke-linejoin:miter;stroke-miterlimit:4;stroke-dasharray:none;stroke-dashoffset:0;stroke-opacity:1;color-rendering:auto;image-rendering:auto;shape-rendering:auto;text-rendering:auto;enable-background:accumulate;stop-color:#000000;stop-opacity:1"
         d="m 106.3102,127.74819 v -5.38154 h 12.35107 v 11.02774 c -2.36435,1.61152 -4.45815,2.71135 -6.2814,3.2995 -1.81149,0.57638 -3.96411,0.86457 -6.45785,0.86457 -3.07012,0 -5.57562,-0.52345 -7.516505,-1.57035 -1.929119,-1.0469 -3.428892,-2.60549 -4.499318,-4.67576 -1.058663,-2.07027 -1.587995,-4.44638 -1.587995,-7.12833 0,-2.8231 0.582265,-5.27567 1.746794,-7.35771 1.164529,-2.0938 2.870153,-3.68179 5.116872,-4.76398 1.752672,-0.83517 4.111142,-1.25275 7.075402,-1.25275 2.85839,0 4.99336,0.25878 6.40491,0.77635 1.42331,0.51757 2.5996,1.32333 3.52887,2.41728 0.94104,1.08219 1.64682,2.45845 2.11733,4.12879 l -7.7106,1.37626 c -0.31759,-0.97632 -0.85869,-1.72327 -1.62328,-2.24084 -0.75283,-0.51757 -1.71739,-0.77635 -2.89368,-0.77635 -1.75267,0 -3.15246,0.61167 -4.19936,1.83502 -1.03514,1.21158 -1.55271,3.13482 -1.55271,5.76971 0,2.79957 0.52345,4.79927 1.57035,5.99909 1.05867,1.19982 2.52903,1.79973 4.4111,1.79973 0.89398,0 1.74679,-0.12939 2.55844,-0.38818 0.81164,-0.25879 1.74091,-0.6999 2.78781,-1.32333 v -2.43492 z"
         id="path845" />
      <path
         style="color:#000000;font-style:normal;font-variant:normal;font-weight:900;font-stretch:normal;font-size:36.1357px;line-height:1.25;font-family:'Arial Black';-inkscape-font-specification:'Arial Black, Heavy';font-variant-ligatures:normal;font-variant-position:normal;font-variant-caps:normal;font-variant-numeric:normal;font-variant-alternates:normal;font-variant-east-asian:normal;font-feature-settings:normal;font-variation-settings:normal;text-indent:0;text-align:start;text-decoration:none;text-decoration-line:none;text-decoration-style:solid;text-decoration-color:#000000;letter-spacing:normal;word-spacing:normal;text-transform:none;writing-mode:lr-tb;direction:ltr;text-orientation:mixed;dominant-baseline:auto;baseline-shift:baseline;text-anchor:start;white-space:normal;shape-padding:0;shape-margin:0;inline-size:0;clip-rule:nonzero;display:inline;overflow:visible;visibility:visible;isolation:auto;mix-blend-mode:normal;color-interpolation:sRGB;color-interpolation-filters:linearRGB;solid-color:#000000;solid-opacity:1;vector-effect:none;fill-opacity:1;fill-rule:nonzero;stroke:none;stroke-width:0.903396;stroke-linecap:butt;stroke-linejoin:miter;stroke-miterlimit:4;stroke-dasharray:none;stroke-dashoffset:0;stroke-opacity:1;color-rendering:auto;image-rendering:auto;shape-rendering:auto;text-rendering:auto;enable-background:accumulate;stop-color:#000000;stop-opacity:1"
         d="m 106.25781,110.35742 c -3.00668,0 -5.42758,0.41917 -7.269529,1.29688 h -0.002 v 0.002 c -2.32184,1.11837 -4.107968,2.77842 -5.316406,4.95117 -1.206402,2.15761 -1.802735,4.69166 -1.802734,7.57617 0,2.74138 0.542057,5.19332 1.636718,7.33399 v 0.002 h 0.002 c 1.107005,2.14102 2.67555,3.7755 4.683594,4.86524 h 0.002 c 2.028467,1.09414 4.609007,1.625 7.730477,1.625 2.52854,0 4.72714,-0.29023 6.5957,-0.88477 v -0.002 c 1.88368,-0.60764 4.01057,-1.72792 6.39844,-3.35547 l 0.19726,-0.13477 v -11.71875 h -13.2539 v 6.28516 h 0.45117 4.89453 v 1.70117 c -0.92353,0.53326 -1.77215,0.95181 -2.47461,1.17578 -0.76592,0.24421 -1.56953,0.36719 -2.41992,0.36719 -1.78608,0 -3.10146,-0.54624 -4.07227,-1.64648 -0.93155,-1.06899 -1.45703,-2.95936 -1.45703,-5.70118 0,-2.57574 0.51327,-4.38793 1.44336,-5.47656 0.96594,-1.12874 2.20789,-1.67578 3.85547,-1.67578 1.11004,0 1.97635,0.23997 2.63867,0.69531 l 0.002,0.002 c 0.67946,0.45995 1.1554,1.11057 1.44727,2.00782 l 0.12109,0.37304 8.58985,-1.5332 -0.13672,-0.47851 c -0.48436,-1.71948 -1.2167,-3.15857 -2.20703,-4.29883 l -0.004,-0.004 c -0.97926,-1.1513 -2.22577,-2.00385 -3.71289,-2.54492 h -0.002 c -1.50402,-0.5511 -3.67392,-0.80469 -6.5586,-0.80469 z m 0,0.9043 c 2.83113,0 4.92902,0.2644 6.24805,0.74805 h 0.002 c 1.35693,0.49342 2.46149,1.25113 3.33985,2.28515 v 0.002 l 0.002,0.002 c 0.78622,0.90415 1.33872,2.12676 1.78711,3.49414 l -6.79102,1.21289 c -0.35748,-0.87136 -0.87551,-1.6099 -1.61523,-2.11133 l -0.002,-0.002 c -0.843,-0.57881 -1.90693,-0.85352 -3.14844,-0.85352 -1.85777,0 -3.41315,0.67619 -4.54102,1.99414 h -0.002 c -1.14019,1.33453 -1.660157,3.36846 -1.660157,6.0625 0,2.85588 0.520317,4.96592 1.681637,6.29688 h 0.002 v 0.002 c 1.14652,1.2994 2.77194,1.95117 4.75,1.95117 0.93756,0 1.83793,-0.13483 2.69531,-0.4082 0.85811,-0.2736 1.81348,-0.73156 2.88086,-1.36719 l 0.2207,-0.13086 v -3.14257 h -5.3457 v -4.47852 h 11.44726 V 133.125 c -2.24869,1.51248 -4.26229,2.5882 -5.96875,3.13867 -1.7541,0.55789 -3.86016,0.84375 -6.31835,0.84375 -3.01768,0 -5.44774,-0.51668 -7.300786,-1.51562 l -0.002,-0.002 c -1.848218,-1.00362 -3.27726,-2.48506 -4.310547,-4.48242 l -0.002,-0.002 c -1.021924,-1.99937 -1.53711,-4.30032 -1.53711,-6.92188 0,-2.76099 0.567383,-5.13059 1.689453,-7.13671 v -0.002 c 1.120621,-2.01485 2.746372,-3.53017 4.917969,-4.57617 v 0.002 c 1.663411,-0.79262 3.959021,-1.20898 6.880861,-1.20898 z"
         id="path847" />
    </g>
    <g
       id="g870"
       transform="translate(-0.38908102,-5.55625)">
      <g
         id="g849"
         style="font-style:normal;font-variant:normal;font-weight:900;font-stretch:normal;font-size:36.1357px;line-height:1.25;font-family:'Arial Black';-inkscape-font-specification:'Arial Black, Heavy';font-variant-ligatures:normal;font-variant-caps:normal;font-variant-numeric:normal;font-variant-east-asian:normal;stroke-width:0.903396"
         transform="matrix(1.7455415,0,0,1.3100324,-77.22674,-49.912476)">
        <path
           style="color:#000000;font-style:normal;font-variant:normal;font-weight:900;font-stretch:normal;font-size:36.1357px;line-height:1.25;font-family:'Arial Black';-inkscape-font-specification:'Arial Black, Heavy';font-variant-ligatures:normal;font-variant-position:normal;font-variant-caps:normal;font-variant-numeric:normal;font-variant-alternates:normal;font-variant-east-asian:normal;font-feature-settings:normal;font-variation-settings:normal;text-indent:0;text-align:start;text-decoration:none;text-decoration-line:none;text-decoration-style:solid;text-decoration-color:#000000;letter-spacing:normal;word-spacing:normal;text-transform:none;writing-mode:lr-tb;direction:ltr;text-orientation:mixed;dominant-baseline:auto;baseline-shift:baseline;text-anchor:start;white-space:normal;shape-padding:0;shape-margin:0;inline-size:0;clip-rule:nonzero;display:inline;overflow:visible;visibility:visible;isolation:auto;mix-blend-mode:normal;color-interpolation:sRGB;color-interpolation-filters:linearRGB;solid-color:#000000;solid-opacity:1;vector-effect:none;fill:#000000;fill-opacity:1;fill-rule:nonzero;stroke:none;stroke-width:0.903396;stroke-linecap:butt;stroke-linejoin:miter;stroke-miterlimit:4;stroke-dasharray:none;stroke-dashoffset:0;stroke-opacity:1;color-rendering:auto;image-rendering:auto;shape-rendering:auto;text-rendering:auto;enable-background:accumulate;stop-color:#000000;stop-opacity:1"
           d="m 92.300558,169.37129 c 0,-4.22289 1.176292,-7.51062 3.528877,-9.86321 2.352585,-2.35259 5.628555,-3.52888 9.827925,-3.52888 4.30523,0 7.62237,1.15865 9.95143,3.47595 2.32906,2.30553 3.49359,5.54034 3.49359,9.70441 0,3.02307 -0.51169,5.50505 -1.53506,7.44593 -1.01161,1.92912 -2.48198,3.43477 -4.4111,4.51696 -1.91735,1.07043 -4.31111,1.60564 -7.18126,1.60564 -2.91721,0 -5.33449,-0.46464 -7.251846,-1.39391 -1.905594,-0.92927 -3.452419,-2.39963 -4.640474,-4.41109 -1.188055,-2.01146 -1.782082,-4.52873 -1.782082,-7.5518 z m 7.992902,0.0353 c 0,2.61137 0.48228,4.48755 1.44684,5.62856 0.97633,1.141 2.29966,1.7115 3.96999,1.7115 1.71739,0 3.0466,-0.55874 3.98763,-1.67621 0.94103,-1.11748 1.41155,-3.12306 1.41155,-6.01674 0,-2.43493 -0.49404,-4.21113 -1.48213,-5.3286 -0.97632,-1.12924 -2.30553,-1.69386 -3.98763,-1.69386 -1.61152,0 -2.90544,0.5705 -3.88176,1.7115 -0.97633,1.14101 -1.46449,3.02896 -1.46449,5.66385 z"
           id="path851" />
        <path
           style="color:#000000;font-style:normal;font-variant:normal;font-weight:900;font-stretch:normal;font-size:36.1357px;line-height:1.25;font-family:'Arial Black';-inkscape-font-specification:'Arial Black, Heavy';font-variant-ligatures:normal;font-variant-position:normal;font-variant-caps:normal;font-variant-numeric:normal;font-variant-alternates:normal;font-variant-east-asian:normal;font-feature-settings:normal;font-variation-settings:normal;text-indent:0;text-align:start;text-decoration:none;text-decoration-line:none;text-decoration-style:solid;text-decoration-color:#000000;letter-spacing:normal;word-spacing:normal;text-transform:none;writing-mode:lr-tb;direction:ltr;text-orientation:mixed;dominant-baseline:auto;baseline-shift:baseline;text-anchor:start;white-space:normal;shape-padding:0;shape-margin:0;inline-size:0;clip-rule:nonzero;display:inline;overflow:visible;visibility:visible;isolation:auto;mix-blend-mode:normal;color-interpolation:sRGB;color-interpolation-filters:linearRGB;solid-color:#000000;solid-opacity:1;vector-effect:none;fill-opacity:1;fill-rule:nonzero;stroke:none;stroke-width:0.903396;stroke-linecap:butt;stroke-linejoin:miter;stroke-miterlimit:4;stroke-dasharray:none;stroke-dashoffset:0;stroke-opacity:1;color-rendering:auto;image-rendering:auto;shape-rendering:auto;text-rendering:auto;enable-background:accumulate;stop-color:#000000;stop-opacity:1"
           d="m 105.6582,155.52734 c -4.28371,0 -7.700829,1.21451 -10.148434,3.66211 -2.448138,2.44814 -3.660157,5.87488 -3.660157,10.18164 0,3.08225 0.605303,5.68448 1.84375,7.78125 1.226346,2.07629 2.844272,3.61856 4.832032,4.58789 1.998259,0.96849 4.484049,1.43946 7.449219,1.43946 2.92631,0 5.40123,-0.54492 7.40234,-1.66211 v -0.002 c 1.99915,-1.12146 3.53954,-2.69696 4.58985,-4.69921 v -0.002 c 1.06795,-2.02622 1.58789,-4.58103 1.58789,-7.65429 0,-4.24829 -1.20322,-7.62421 -3.62891,-10.02539 -2.42765,-2.41473 -5.88197,-3.60743 -10.26758,-3.60743 z m 0,0.9043 c 4.22419,0 7.4024,1.1246 9.63282,3.34375 2.23243,2.20988 3.35937,5.30491 3.35937,9.38477 0,2.9721 -0.50418,5.37908 -1.48242,7.23437 v 0.002 c -0.9729,1.85531 -2.3738,3.2894 -4.23242,4.33204 -1.8336,1.02366 -4.14694,1.54882 -6.96094,1.54882 -2.86844,0 -5.21651,-0.46004 -7.052735,-1.34961 h -0.002 c -1.822759,-0.88923 -3.299759,-2.28826 -4.449219,-4.23437 -1.137662,-1.92614 -1.71875,-4.35836 -1.71875,-7.32227 0,-4.139 1.139453,-7.28593 3.396485,-9.54297 2.257563,-2.25756 5.394749,-3.39648 9.509759,-3.39648 z m -0.0176,5.14844 c -1.71812,0 -3.17042,0.63486 -4.22656,1.86914 -1.08799,1.27151 -1.572263,3.26635 -1.572263,5.95703 0,2.66698 0.478493,4.64917 1.552733,5.91992 l 0.002,0.002 c 1.05906,1.23769 2.54127,1.8711 4.31446,1.8711 1.81535,0 3.30379,-0.61686 4.33203,-1.83789 1.06477,-1.26442 1.51758,-3.36595 1.51758,-6.3086 0,-2.4952 -0.50053,-4.38554 -1.59571,-5.625 -1.06006,-1.22409 -2.54267,-1.84765 -4.32422,-1.84765 z m 0,0.90234 c 1.58103,0 2.75216,0.50691 3.64454,1.53906 h 0.002 l 0.002,0.002 c 0.88025,0.99551 1.36914,2.65547 1.36914,5.02929 0,2.84472 -0.48934,4.75603 -1.30664,5.72657 -0.85382,1.01391 -2.02121,1.51562 -3.64062,1.51562 -1.56748,0 -2.73336,-0.50842 -3.62696,-1.55273 -0.85398,-1.01155 -1.33789,-2.78163 -1.33789,-5.33594 0,-2.5791 0.49081,-4.35864 1.35547,-5.36914 0.89651,-1.04772 2.03415,-1.55469 3.53906,-1.55469 z"
           id="path853" />
      </g>
      <path
         id="path861"
         style="fill:none;stroke:#000000;stroke-width:2.64583;stroke-linecap:butt;stroke-linejoin:miter;stroke-miterlimit:4;stroke-dasharray:none;stroke-opacity:1"
         d="m 70.470336,146.99051 c -0.708427,0.0168 -1.398379,0.11681 -1.663981,0.3824 -0.105055,0.10507 0,1.64781 0,1.85209 0,3.64744 2.127647,6.31465 3.96875,9.26041 0.156435,0.25031 0.661099,1.71944 0.79375,1.85209 0.08819,0.0882 0.389308,0.26458 0.264584,0.26458 -0.124725,0 -0.153025,-0.2088 -0.264584,-0.26458 -0.35587,-0.17794 -0.936066,-0.16786 -1.322916,-0.26459 -0.645907,-0.16147 -3.981659,-2.2425 -4.7625,-1.85208 -3.076477,1.53824 0.559204,7.71797 1.5875,9.26042 0.596617,0.89492 3.96875,3.30776 3.96875,3.96875 0,0.0882 -0.17639,0 -0.264584,0 -0.352777,0 -0.707713,0.039 -1.058333,0 -1.42626,-0.15847 -3.987758,-1.56849 -5.291667,-0.26459 -0.13767,0.13769 0,0.83462 0,1.05834 0,0.93732 -0.12818,1.78175 0.264584,2.64583 1.366263,3.00578 0.404894,1.72781 2.38125,3.70417 0.440973,0.44097 0.824013,0.94874 1.322916,1.32291 1.061154,0.79587 4.975524,3.43959 6.35,3.43959 0.03902,0 0.658154,0.18706 1.11156,0.27388 -0.202049,0.0998 -0.424813,0.22377 -0.582393,0.25528 -1.406509,0.28131 0.487841,-1.11209 -2.116667,1.05834 -0.54297,0.45247 0.521436,2.60361 1.058334,2.91041 3.264587,1.86548 10.157428,1.24935 13.758333,0.52917 1.206222,-0.24124 3.598799,-2.02234 4.690152,-1.27434 l -6.013069,-21.74441 c -2.45822,-0.61455 -0.6634,-0.0644 -4.7625,-2.38125 -1.740151,-0.98356 -3.736099,-1.85664 -4.7625,-3.70417 -2.526162,-4.54708 1.670698,2.05842 -1.322916,-2.64583 -0.811062,-1.27452 -2.019502,-2.32624 -2.645834,-3.70417 -0.631391,-1.38906 -1.088808,-2.8976 -1.852083,-4.23333 -0.123762,-0.21658 -0.400825,-0.31525 -0.529167,-0.52917 -0.01717,-0.0286 -0.195656,-0.99163 -0.529166,-1.05833 -0.340265,-0.068 -1.067173,-0.13458 -1.775603,-0.11782 z m 73.620834,0.76998 c -0.70843,-0.0168 -1.43534,0.0498 -1.77561,0.11782 -0.33351,0.0667 -0.51196,1.02973 -0.52916,1.05833 -0.12835,0.21391 -0.40541,0.31259 -0.52917,0.52917 -0.76327,1.33573 -1.2207,2.84427 -1.85208,4.23333 -0.62633,1.37793 -1.83478,2.42965 -2.64584,3.70417 -2.99362,4.70425 1.20325,-1.90126 -1.32291,2.64583 -1.0264,1.84753 -3.02235,2.72061 -4.7625,3.70417 -4.0991,2.31685 -2.30428,1.7667 -4.7625,2.38125 l -6.01307,21.74441 c 1.09135,-0.748 3.48393,1.0331 4.69015,1.27434 3.60091,0.72018 10.49374,1.33631 13.75833,-0.52917 0.53689,-0.3068 1.60131,-2.45794 1.05834,-2.91041 -2.60451,-2.17043 -0.71016,-0.77703 -2.11667,-1.05834 -0.15731,-0.0315 -0.37957,-0.15502 -0.58136,-0.25476 0.45331,-0.0869 1.07156,-0.2744 1.11053,-0.2744 1.37448,0 5.28885,-2.64372 6.35,-3.43959 0.49889,-0.37417 0.88193,-0.88194 1.32291,-1.32291 1.97635,-1.97636 1.01498,-0.69839 2.38125,-3.70417 0.39276,-0.86408 0.26459,-1.70851 0.26459,-2.64583 0,-0.22372 0.13767,-0.92066 0,-1.05834 -1.30392,-1.3039 -3.86541,0.10612 -5.29167,0.26459 -0.35062,0.039 -0.70555,0 -1.05833,0 -0.0882,0 -0.26459,0.0882 -0.26459,0 0,-0.66099 3.37213,-3.07383 3.96875,-3.96875 1.02829,-1.54245 4.66397,-7.72218 1.5875,-9.26042 -0.78084,-0.39042 -4.1166,1.69061 -4.7625,1.85208 -0.38685,0.0967 -0.96704,0.0866 -1.32291,0.26459 -0.11157,0.0558 -0.13987,0.26458 -0.26459,0.26458 -0.12473,0 0.17638,-0.17638 0.26459,-0.26458 0.13265,-0.13265 0.63731,-1.60179 0.79375,-1.85209 1.8411,-2.94576 3.96875,-5.61297 3.96875,-9.26041 0,-0.20428 0.10506,-1.74703 0,-1.85209 -0.26561,-0.2656 -0.95556,-0.36564 -1.66398,-0.3824 z" />
    </g>
  </g>
</svg>
